<svg width="18" height="18" viewBox="0 0 18 18" fill="none" xmlns="http://www.w3.org/2000/svg">
<path d="M0 16.2C0 16.6774 0.189642 17.1352 0.527208 17.4728C0.864773 17.8104 1.32261 18 1.8 18H16.2C16.6774 18 17.1352 17.8104 17.4728 17.4728C17.8104 17.1352 18 16.6774 18 16.2V7.2H0V16.2ZM12.6 9.45C12.6 9.33065 12.6474 9.21619 12.7318 9.1318C12.8162 9.04741 12.9307 9 13.05 9H13.95C14.0693 9 14.1838 9.04741 14.2682 9.1318C14.3526 9.21619 14.4 9.33065 14.4 9.45V10.35C14.4 10.4693 14.3526 10.5838 14.2682 10.6682C14.1838 10.7526 14.0693 10.8 13.95 10.8H13.05C12.9307 10.8 12.8162 10.7526 12.7318 10.6682C12.6474 10.5838 12.6 10.4693 12.6 10.35V9.45ZM12.6 13.05C12.6 12.9307 12.6474 12.8162 12.7318 12.7318C12.8162 12.6474 12.9307 12.6 13.05 12.6H13.95C14.0693 12.6 14.1838 12.6474 14.2682 12.7318C14.3526 12.8162 14.4 12.9307 14.4 13.05V13.95C14.4 14.0693 14.3526 14.1838 14.2682 14.2682C14.1838 14.3526 14.0693 14.4 13.95 14.4H13.05C12.9307 14.4 12.8162 14.3526 12.7318 14.2682C12.6474 14.1838 12.6 14.0693 12.6 13.95V13.05ZM8.1 9.45C8.1 9.33065 8.14741 9.21619 8.2318 9.1318C8.31619 9.04741 8.43065 9 8.55 9H9.45C9.56935 9 9.68381 9.04741 9.7682 9.1318C9.85259 9.21619 9.9 9.33065 9.9 9.45V10.35C9.9 10.4693 9.85259 10.5838 9.7682 10.6682C9.68381 10.7526 9.56935 10.8 9.45 10.8H8.55C8.43065 10.8 8.31619 10.7526 8.2318 10.6682C8.14741 10.5838 8.1 10.4693 8.1 10.35V9.45ZM8.1 13.05C8.1 12.9307 8.14741 12.8162 8.2318 12.7318C8.31619 12.6474 8.43065 12.6 8.55 12.6H9.45C9.56935 12.6 9.68381 12.6474 9.7682 12.7318C9.85259 12.8162 9.9 12.9307 9.9 13.05V13.95C9.9 14.0693 9.85259 14.1838 9.7682 14.2682C9.68381 14.3526 9.56935 14.4 9.45 14.4H8.55C8.43065 14.4 8.31619 14.3526 8.2318 14.2682C8.14741 14.1838 8.1 14.0693 8.1 13.95V13.05ZM3.6 9.45C3.6 9.33065 3.64741 9.21619 3.7318 9.1318C3.81619 9.04741 3.93065 9 4.05 9H4.95C5.06935 9 5.18381 9.04741 5.2682 9.1318C5.35259 9.21619 5.4 9.33065 5.4 9.45V10.35C5.4 10.4693 5.35259 10.5838 5.2682 10.6682C5.18381 10.7526 5.06935 10.8 4.95 10.8H4.05C3.93065 10.8 3.81619 10.7526 3.7318 10.6682C3.64741 10.5838 3.6 10.4693 3.6 10.35V9.45ZM3.6 13.05C3.6 12.9307 3.64741 12.8162 3.7318 12.7318C3.81619 12.6474 3.93065 12.6 4.05 12.6H4.95C5.06935 12.6 5.18381 12.6474 5.2682 12.7318C5.35259 12.8162 5.4 12.9307 5.4 13.05V13.95C5.4 14.0693 5.35259 14.1838 5.2682 14.2682C5.18381 14.3526 5.06935 14.4 4.95 14.4H4.05C3.93065 14.4 3.81619 14.3526 3.7318 14.2682C3.64741 14.1838 3.6 14.0693 3.6 13.95V13.05Z" fill="white"/>
<path d="M18 3.6C18 3.12261 17.8104 2.66477 17.4728 2.32721C17.1352 1.98964 16.6774 1.8 16.2 1.8H14.4V0.9C14.4 0.661305 14.3052 0.432387 14.1364 0.263604C13.9676 0.0948211 13.7387 0 13.5 0C13.2613 0 13.0324 0.0948211 12.8636 0.263604C12.6948 0.432387 12.6 0.661305 12.6 0.9V1.8H9.9V0.9C9.9 0.661305 9.80518 0.432387 9.6364 0.263604C9.46761 0.0948211 9.2387 0 9 0C8.7613 0 8.53239 0.0948211 8.3636 0.263604C8.19482 0.432387 8.1 0.661305 8.1 0.9V1.8H5.4V0.9C5.4 0.661305 5.30518 0.432387 5.1364 0.263604C4.96761 0.0948211 4.73869 0 4.5 0C4.26131 0 4.03239 0.0948211 3.8636 0.263604C3.69482 0.432387 3.6 0.661305 3.6 0.9V1.8H1.8C1.32261 1.8 0.864773 1.98964 0.527208 2.32721C0.189642 2.66477 0 3.12261 0 3.6V5.4H18V3.6Z" fill="white"/>
</svg>
