<svg width="8" height="14" viewBox="0 0 8 14" fill="none" xmlns="http://www.w3.org/2000/svg">
<path d="M1.34701 14C1.08387 13.9999 0.826657 13.9179 0.607884 13.7643C0.389111 13.6106 0.2186 13.3922 0.11791 13.1368C0.017219 12.8813 -0.00913108 12.6002 0.0421891 12.329C0.0935092 12.0578 0.220196 11.8087 0.406234 11.6131L4.78808 7.00859L0.406234 2.40405C0.279143 2.27506 0.17777 2.12077 0.108032 1.95017C0.0382934 1.77958 0.00158557 1.5961 5.02398e-05 1.41043C-0.00148509 1.22477 0.0321837 1.04064 0.0990903 0.8688C0.165997 0.696957 0.264802 0.540835 0.389741 0.409547C0.51468 0.278259 0.66325 0.174432 0.826782 0.104125C0.990315 0.0338181 1.16553 -0.00156057 1.34222 5.2795e-05C1.5189 0.00166616 1.69351 0.0402396 1.85586 0.113522C2.0182 0.186805 2.16503 0.293329 2.28778 0.426879L7.6104 6.02001C7.85986 6.28222 8 6.63782 8 7.00859C8 7.37937 7.85986 7.73496 7.6104 7.99718L2.28778 13.5903C2.03829 13.8526 1.69989 13.9999 1.34701 14Z" fill="#8E8E8E"/>
</svg>
